<svg width="831" height="950" viewBox="0 0 831 950" fill="none" xmlns="http://www.w3.org/2000/svg">
<g filter="url(#filter0_d)">
<path d="M1459.62 647.077C1390.63 641.844 1321.65 632.428 1255.26 612.931C1233.74 606.61 1212.37 599.172 1192.95 587.952C1153.34 565.072 1124.23 528.039 1089.42 498.353C1045.22 460.649 991.014 434.927 934.003 423.916C891.104 415.632 838.708 411.478 799.923 389.929C764.688 370.352 754.145 315.087 735.575 281.959C716.552 248.029 687.011 220.413 652.585 202.503C634.549 193.121 615.119 186.356 595.104 182.742C575.964 179.289 553.565 183.437 546.188 160.195C543.751 152.513 544.441 144.232 543.465 136.23C540.072 108.424 513.691 85.3602 485.68 85.7149" stroke="#3282B8" stroke-opacity="0.64" stroke-width="0.552088" stroke-miterlimit="10"/>
<path d="M1456.89 646.458C1388.59 642.446 1319.85 633.706 1253.8 614.354C1231.8 607.922 1210.22 600.023 1190.25 588.865C1166.17 575.373 1145.73 556.882 1125.65 537.786C1111.95 524.751 1098.42 511.432 1084.03 499.223C1055.6 475.105 1023.49 455.376 989.529 440.752C969.671 432.202 949.181 425.403 928.378 420.517C913.784 417.06 898.134 414.059 882.324 410.68C860.106 405.904 837.573 400.368 816.965 391.881C809.562 388.841 802.408 385.423 795.634 381.517C767.64 365.356 754.076 328.122 739.765 297.266C735.941 288.98 732.065 281.151 727.836 274.305C710.521 246.087 685.753 222.669 657.025 205.949C652.079 203.069 647.014 200.386 641.845 197.909C623.414 189.075 603.621 182.789 583.274 179.34C571.223 177.299 557.966 178.005 547.708 173.373C541.392 170.522 536.257 165.642 533.193 156.905C530.515 149.27 530.833 141.037 529.568 133.052C525.201 105.312 498.686 81.9658 470.332 81.753" stroke="#3282B8" stroke-opacity="0.64" stroke-width="0.552088" stroke-miterlimit="10"/>
<path d="M1454.16 645.836C1386.54 643.047 1318.06 634.982 1252.34 615.773C1229.85 609.23 1208.07 600.872 1187.55 589.773C1162.94 576.387 1141.88 558.005 1121.26 538.895C1107.18 525.848 1093.31 512.458 1078.64 500.085C1049.67 475.639 1017.33 455.204 983.458 439.522C963.655 430.352 943.326 422.822 922.753 417.111C908.305 413.043 892.867 409.401 877.296 405.384C855.404 399.69 833.236 393.233 812.688 384.06C805.313 380.786 798.157 377.168 791.338 373.097C763.125 356.205 748.425 319.336 732.92 289.088C728.795 280.97 724.595 273.335 720.09 266.648C701.605 239.213 676.033 216.673 646.621 200.879C641.561 198.158 636.381 195.637 631.101 193.312C612.272 185.024 592.117 179.217 571.438 175.936C559.184 173.994 545.769 174.629 535.266 169.978C528.793 167.111 523.509 162.228 520.191 153.613C517.27 146.024 517.217 137.843 515.666 129.872C510.326 102.201 483.674 78.5684 454.982 77.7895" stroke="#3282B8" stroke-opacity="0.64" stroke-width="0.552088" stroke-miterlimit="10"/>
<path d="M1451.43 645.217C1384.5 643.647 1316.26 636.26 1250.88 617.195C1227.91 610.539 1205.92 601.722 1184.85 590.686C1159.71 577.408 1138.04 559.134 1116.88 540.011C1102.42 526.952 1088.19 513.493 1073.25 500.951C1043.75 476.18 1011.18 455.036 977.395 438.295C957.642 428.506 937.46 420.3 917.134 413.707C902.82 409.065 887.606 404.742 872.276 400.092C850.707 393.479 828.91 386.104 808.422 376.242C801.078 372.735 793.915 368.914 787.055 364.683C758.619 347.059 742.708 310.602 726.086 280.913C721.642 272.973 717.15 265.514 712.358 258.993C692.754 232.312 666.325 210.675 636.23 195.813C631.054 193.253 625.762 190.89 620.372 188.72C601.147 180.979 580.63 175.652 559.618 172.539C547.162 170.696 533.59 171.262 522.839 166.589C516.208 163.709 510.773 158.825 507.205 150.324C504.038 142.781 503.618 134.649 501.781 126.692C495.467 99.0891 468.683 75.1709 439.646 73.8267" stroke="#3282B8" stroke-opacity="0.64" stroke-width="0.552088" stroke-miterlimit="10"/>
<path d="M1448.7 644.598C1382.46 644.248 1314.46 637.538 1249.41 618.62C1225.96 611.853 1203.75 602.619 1182.16 591.6C1156.45 578.478 1134.2 560.265 1112.48 541.128C1097.65 528.059 1083.07 514.531 1067.86 501.823C1037.82 476.725 1005.01 454.877 971.323 437.075C951.625 426.667 931.594 417.742 911.507 410.31C897.332 405.068 882.34 400.092 867.245 394.809C846.001 387.277 824.57 378.982 804.143 368.432C796.828 364.69 789.66 360.667 782.761 356.274C754.105 337.92 737.039 301.844 719.241 272.743C714.491 264.974 709.695 257.699 704.616 251.343C683.897 225.422 656.61 204.686 625.83 190.751C620.538 188.348 615.133 186.145 609.632 184.13C590.012 176.937 569.13 172.087 547.788 169.141C535.129 167.397 521.402 167.892 510.403 163.2C503.613 160.305 498.025 155.419 494.21 147.037C490.795 139.54 490.009 131.46 487.885 123.518C480.596 95.9818 453.677 71.7787 424.302 69.8684" stroke="#3282B8" stroke-opacity="0.64" stroke-width="0.552088" stroke-miterlimit="10"/>
<path d="M1445.97 643.978C1380.41 644.852 1312.67 638.817 1247.95 620.041C1224.02 613.161 1201.59 603.478 1179.46 592.509C1153.22 579.504 1130.36 561.39 1108.09 542.239C1092.88 529.159 1077.96 515.562 1062.47 502.684C1031.9 477.262 998.86 454.706 965.257 435.846C945.61 424.819 925.736 415.173 905.888 406.905C891.856 401.061 877.066 395.471 862.224 389.515C841.283 381.114 820.27 371.803 799.875 360.612C792.599 356.619 785.419 352.413 778.475 347.854C749.597 328.769 731.381 293.075 712.403 264.563C707.348 256.968 702.246 249.874 696.879 243.684C675.052 218.516 646.9 198.686 615.434 185.68C610.026 183.439 604.509 181.393 598.894 179.53C578.876 172.887 557.63 168.515 535.958 165.734C523.096 164.089 509.21 164.514 497.966 159.802C491.018 156.894 485.277 152.005 481.214 143.743C477.552 136.291 476.399 128.264 473.988 120.335C465.727 92.8683 438.672 68.3805 408.954 65.9027" stroke="#3282B8" stroke-opacity="0.64" stroke-width="0.552088" stroke-miterlimit="10"/>
<path d="M1443.24 643.358C1378.37 645.453 1310.87 640.095 1246.49 621.464C1222.08 614.474 1199.44 604.336 1176.76 593.422C1149.98 580.534 1126.51 562.517 1103.7 543.355C1088.11 530.262 1072.84 516.596 1057.08 503.554C1025.97 477.806 992.7 454.544 959.188 434.622C939.596 422.975 919.873 412.606 900.265 403.505C886.373 397.057 871.8 390.822 857.2 384.227C836.577 374.913 815.943 364.67 795.604 352.796C788.36 348.568 781.17 344.164 774.188 339.441C745.089 319.625 725.725 284.314 705.565 256.388C700.206 248.966 694.803 242.055 689.141 236.03C666.208 211.619 637.189 192.692 605.037 180.613C599.514 178.53 593.883 176.644 588.16 174.934C567.746 168.839 546.138 164.946 524.132 162.332C511.067 160.786 497.025 161.142 485.533 156.408C478.429 153.488 472.526 148.594 468.22 140.451C464.306 133.044 462.792 125.067 460.097 117.155C450.862 89.7546 423.673 64.9799 393.615 61.9402" stroke="#3282B8" stroke-opacity="0.64" stroke-width="0.552088" stroke-miterlimit="10"/>
<path d="M1440.51 642.737C1376.32 646.051 1309.07 641.371 1245.03 622.883C1220.13 615.78 1197.28 605.189 1174.06 594.33C1146.75 581.556 1122.67 563.64 1099.31 544.464C1083.34 531.36 1067.72 517.625 1051.69 504.414C1020.05 478.341 986.542 454.37 953.121 433.391C933.581 421.127 914.011 410.034 894.641 400.097C880.888 393.043 866.531 386.163 852.172 378.931C831.869 368.702 811.614 357.531 791.33 344.975C784.119 340.512 776.92 335.907 769.897 331.02C740.575 310.472 720.068 275.545 698.725 248.208C693.064 240.956 687.355 234.227 681.402 228.369C657.37 204.711 627.474 186.689 594.639 175.54C589 173.615 583.253 171.891 577.422 170.334C556.612 164.786 534.64 161.371 512.303 158.923C499.036 157.476 484.835 157.762 473.098 153.008C465.837 150.072 459.772 145.178 455.228 137.152C451.06 129.789 449.185 121.866 446.204 113.968C435.998 86.6346 408.672 61.5772 378.272 57.9679" stroke="#3282B8" stroke-opacity="0.64" stroke-width="0.552088" stroke-miterlimit="10"/>
<path d="M1437.78 642.117C1374.28 646.654 1307.27 642.65 1243.57 624.307C1218.19 617.094 1195.13 606.047 1171.37 595.245C1143.51 582.583 1118.82 564.771 1094.92 545.583C1078.57 532.468 1062.6 518.664 1046.3 505.286C1014.12 478.886 980.381 454.208 947.049 432.171C927.561 419.285 908.145 407.466 889.015 396.7C875.402 389.039 861.262 381.517 847.146 373.648C827.16 362.505 807.284 350.405 787.055 337.163C779.875 332.464 772.671 327.661 765.607 322.61C736.065 301.333 714.416 266.787 691.884 240.037C685.92 232.956 679.909 226.412 673.665 220.719C648.535 197.81 617.763 180.699 584.243 170.481C578.489 168.718 572.631 167.151 566.685 165.746C545.479 160.746 523.143 157.808 500.474 155.529C487.004 154.18 472.648 154.395 460.662 149.622C453.243 146.672 447.013 141.777 442.233 133.869C437.81 126.553 435.578 118.679 432.308 110.797C421.128 83.5309 393.666 58.1887 362.927 54.0155" stroke="#3282B8" stroke-opacity="0.64" stroke-width="0.552088" stroke-miterlimit="10"/>
<path d="M1435.05 641.498C1372.24 647.256 1305.48 643.928 1242.1 625.729C1216.25 618.402 1192.98 606.903 1168.66 596.153C1140.28 583.604 1114.98 565.895 1090.53 546.693C1073.8 533.567 1057.48 519.69 1040.9 506.148C1008.2 479.423 974.22 454.039 940.981 430.94C921.547 417.437 902.285 404.891 883.392 393.296C869.919 385.027 855.994 376.862 842.12 368.354C822.454 356.296 802.955 343.271 782.781 329.342C775.634 324.408 768.421 319.405 761.315 314.189C731.551 292.18 708.762 258.014 685.04 231.857C678.776 224.948 672.459 218.583 665.922 213.058C639.702 190.9 608.047 174.698 573.842 165.407C567.972 163.802 562.001 162.394 555.945 161.145C534.343 156.692 511.643 154.236 488.641 152.121C474.971 150.873 460.454 151.016 448.222 146.223C440.645 143.26 434.25 138.363 429.233 130.572C424.551 123.299 421.963 115.479 418.409 107.609C406.256 80.4121 378.658 54.7812 347.578 50.0423" stroke="#3282B8" stroke-opacity="0.64" stroke-width="0.552088" stroke-miterlimit="10"/>
<path d="M1432.32 640.878C1370.2 647.857 1303.68 645.208 1240.64 627.151C1214.3 619.713 1190.83 607.759 1165.97 597.066C1137.05 584.628 1111.14 567.025 1086.14 547.807C1069.03 534.668 1052.37 520.724 1035.51 507.014C1002.27 479.963 968.061 453.871 934.91 429.714C915.528 415.59 896.423 402.315 877.767 389.894C864.436 381.016 850.723 372.209 837.091 363.065C817.744 350.087 798.623 336.14 778.504 321.529C771.389 316.36 764.169 311.156 757.023 305.778C727.038 283.039 703.114 249.252 678.196 223.684C671.63 216.947 665.012 210.764 658.18 205.405C630.873 183.993 598.332 168.705 563.44 160.343C557.453 158.898 551.369 157.647 545.203 156.553C523.206 152.649 500.141 150.67 476.811 148.723C462.939 147.574 448.265 147.647 435.786 142.834C428.05 139.856 421.489 134.961 416.238 127.285C411.297 120.06 408.339 112.296 404.513 104.435C391.328 77.3328 363.654 51.3909 332.231 46.0845" stroke="#3282B8" stroke-opacity="0.64" stroke-width="0.552088" stroke-miterlimit="10"/>
<path d="M1429.59 640.256C1368.15 648.457 1301.88 646.482 1239.18 628.571C1212.36 621.021 1188.68 608.61 1163.27 597.975C1133.82 585.647 1107.3 568.15 1081.75 548.918C1064.26 535.768 1047.25 521.755 1030.13 507.876C996.346 480.5 961.905 453.699 928.845 428.485C909.516 413.744 890.564 399.734 872.147 386.489C858.959 377.001 845.461 367.552 832.071 357.773C813.045 343.877 794.298 329.008 774.236 313.709C767.15 308.306 759.927 302.902 752.737 297.359C722.53 273.888 697.471 240.478 671.36 215.503C664.495 208.936 657.574 202.934 650.443 197.745C622.052 177.075 588.619 162.704 553.045 155.27C546.944 153.984 540.745 152.896 534.469 151.953C512.076 148.596 488.647 147.095 464.985 145.316C450.909 144.266 436.079 144.267 423.353 139.436C415.461 136.446 408.727 131.55 403.247 123.988C398.043 116.81 394.734 109.097 390.623 101.248C376.466 74.2146 348.655 47.9862 316.892 42.1158" stroke="#3282B8" stroke-opacity="0.64" stroke-width="0.552088" stroke-miterlimit="10"/>
<path d="M1426.86 639.637C1366.11 649.058 1300.08 647.762 1237.72 629.995C1210.41 622.335 1186.52 609.465 1160.57 598.889C1130.58 586.671 1103.45 569.278 1077.35 550.034C1059.49 536.873 1042.13 522.791 1024.73 508.746C990.415 481.044 955.741 453.538 922.77 427.264C903.494 411.901 884.698 397.163 866.517 383.089C853.47 372.992 840.187 362.899 827.038 352.484C808.331 337.669 789.96 321.88 769.957 305.895C762.904 300.256 755.672 294.651 748.441 288.948C718.013 264.747 691.822 231.712 664.513 207.335C657.35 200.938 650.125 195.117 642.7 190.098C613.227 170.167 578.903 156.717 542.642 150.212C536.424 149.086 530.113 148.155 523.724 147.366C500.934 144.559 477.144 143.535 453.148 141.923C438.87 140.972 423.882 140.904 410.909 136.051C402.861 133.045 395.953 128.151 390.243 120.705C384.776 113.577 381.115 105.911 376.718 98.0763C361.586 71.1143 333.643 44.5967 301.537 38.1589" stroke="#3282B8" stroke-opacity="0.64" stroke-width="0.552088" stroke-miterlimit="10"/>
<path d="M1424.13 639.017C1364.07 649.659 1298.32 648.916 1236.26 631.417C1208.49 623.589 1184.38 610.315 1157.88 599.8C1127.36 587.688 1099.61 570.404 1072.96 551.148C1054.73 537.977 1037.01 523.824 1019.34 509.611C984.493 481.584 949.588 453.371 916.707 426.037C897.483 410.056 878.847 394.581 860.9 379.686C847.997 368.977 834.928 358.241 822.019 347.195C803.631 331.461 785.638 314.754 765.69 298.078C758.667 292.207 751.428 286.399 744.155 280.532C713.505 255.599 686.186 222.939 657.677 199.157C650.215 192.931 642.687 187.291 634.965 182.44C604.412 163.247 569.195 150.718 532.252 145.142C525.917 144.174 519.493 143.403 512.994 142.769C489.808 140.51 465.654 139.963 441.327 138.517C426.846 137.665 411.7 137.526 398.482 132.654C390.275 129.635 383.195 124.744 377.257 117.412C371.525 110.333 367.514 102.715 362.833 94.8963C346.727 68.0054 318.648 41.1991 286.203 34.1973" stroke="#3282B8" stroke-opacity="0.64" stroke-width="0.552088" stroke-miterlimit="10"/>
<path d="M1421.4 638.396C1362.02 650.261 1296.53 650.192 1234.79 632.836C1206.55 624.895 1182.23 611.163 1155.18 600.708C1124.13 588.702 1095.76 571.527 1068.57 552.258C1049.96 539.074 1031.9 524.853 1013.95 510.474C978.567 482.118 943.427 453.202 910.636 424.807C891.464 408.205 872.985 391.995 855.274 376.28C842.514 364.955 829.659 353.582 816.99 341.9C798.924 325.244 781.303 307.622 761.413 290.256C754.42 284.15 747.176 278.144 739.864 272.111C708.993 246.449 680.544 214.16 650.835 190.975C643.072 184.918 635.243 179.459 627.224 174.777C595.592 156.315 559.48 144.715 521.85 140.068C515.403 139.26 508.865 138.648 502.254 138.168C478.672 136.456 454.151 136.39 429.494 135.109C414.813 134.354 399.51 134.147 386.042 129.255C377.677 126.222 370.421 121.335 364.258 114.116C358.257 107.086 353.906 99.5168 348.936 91.7103C331.858 64.8882 303.643 37.7972 270.856 30.2258" stroke="#3282B8" stroke-opacity="0.64" stroke-width="0.552088" stroke-miterlimit="10"/>
<path d="M1418.67 637.778C1359.98 650.862 1294.73 651.473 1233.33 634.261C1204.6 626.207 1180.08 612.016 1152.48 601.623C1120.9 589.724 1091.92 572.658 1064.18 553.375C1045.19 540.18 1026.78 525.89 1008.56 511.343C972.646 482.662 937.272 453.037 904.569 423.584C885.451 406.365 867.13 389.418 849.654 372.881C837.037 360.944 824.396 348.928 811.967 336.612C794.226 319.034 776.973 300.497 757.144 282.441C750.182 276.103 742.932 269.895 735.579 263.699C704.486 237.305 674.912 205.387 643.999 182.802C635.94 176.912 627.808 171.635 619.488 167.125C586.781 149.394 549.769 138.722 511.455 135.004C504.889 134.357 498.238 133.904 491.518 133.577C467.541 132.414 442.658 132.826 417.667 131.712C402.783 131.056 387.323 130.78 373.608 125.867C365.085 122.82 357.651 117.939 351.263 110.829C344.996 103.851 340.296 96.3279 335.04 88.5356C316.99 61.7824 288.639 34.4028 255.512 26.2695" stroke="#3282B8" stroke-opacity="0.64" stroke-width="0.552088" stroke-miterlimit="10"/>
<path d="M1415.94 637.157C1357.94 651.462 1292.9 652.873 1231.87 635.68C1202.64 627.572 1177.92 612.863 1149.78 602.531C1117.66 590.738 1088.08 573.783 1059.79 554.485C1040.42 541.278 1021.67 526.918 1003.17 512.205C966.718 483.198 931.113 452.866 898.502 422.354C879.435 404.513 861.277 386.831 844.03 369.473C831.561 356.92 819.131 344.265 806.941 331.319C789.521 312.819 772.641 293.366 752.87 274.621C745.939 268.049 738.682 261.638 731.287 255.279C699.974 228.154 669.273 196.604 637.155 174.622C628.797 168.903 620.361 163.802 611.747 159.466C577.965 142.462 540.055 132.723 501.056 129.932C494.377 129.444 487.61 129.15 480.778 128.976C456.404 128.36 431.158 129.25 405.836 128.303C390.749 127.746 375.131 127.399 361.173 122.467C352.495 119.406 344.88 114.532 338.271 107.531C331.735 100.606 326.706 93.1156 321.146 85.3492C302.176 58.6258 273.638 31.0005 240.169 22.2976" stroke="#3282B8" stroke-opacity="0.64" stroke-width="0.552088" stroke-miterlimit="10"/>
<path d="M1413.21 636.535C1355.89 652.064 1291.1 654.151 1230.41 637.103C1200.7 628.883 1175.77 613.715 1147.08 603.444C1114.43 591.756 1084.24 574.91 1055.4 555.602C1035.65 542.385 1016.54 527.954 997.778 513.073C960.79 483.742 924.95 452.702 892.429 421.13C873.415 402.672 855.417 384.251 838.403 366.073C826.079 352.906 813.866 339.61 801.912 326.03C784.816 306.608 768.305 286.24 748.595 266.806C741.694 260.002 734.432 253.389 726.996 246.866C695.461 219.009 663.635 187.823 630.316 166.449C621.659 160.896 612.923 155.976 604.009 151.813C569.151 135.532 530.343 126.729 490.658 124.868C483.861 124.539 476.985 124.404 470.042 124.382C445.273 124.314 419.664 125.683 394.008 124.902C378.718 124.444 362.945 124.026 348.738 119.075C339.902 116.001 332.107 111.134 325.277 104.242C318.471 97.373 313.099 89.9227 307.253 82.1705C287.311 55.516 258.635 27.6041 224.825 18.3355" stroke="#3282B8" stroke-opacity="0.64" stroke-width="0.552088" stroke-miterlimit="10"/>
<path d="M1410.47 635.918C1353.85 652.667 1289.3 655.43 1228.95 638.527C1198.76 630.197 1173.63 614.566 1144.39 604.357C1111.21 592.773 1080.39 576.039 1051.01 556.717C1030.88 543.488 1011.43 528.989 992.391 513.943C954.867 484.285 918.795 452.538 886.364 419.909C867.403 400.83 849.57 381.673 832.784 362.676C820.608 348.893 808.606 334.958 796.893 320.745C780.122 300.398 763.978 279.121 744.326 258.996C737.454 251.957 730.188 245.143 722.71 238.456C690.952 209.868 658.003 179.046 623.478 158.278C614.526 152.891 605.485 148.15 596.273 144.161C560.342 128.599 520.634 120.737 480.266 119.804C473.354 119.634 466.363 119.658 459.311 119.792C434.146 120.271 408.17 122.12 382.188 121.505C366.696 121.146 350.764 120.657 336.312 115.687C327.317 112.598 319.344 107.744 312.29 100.955C305.212 94.1434 299.498 86.7332 293.365 78.9952C272.45 52.4057 243.64 24.2108 209.487 14.3786" stroke="#3282B8" stroke-opacity="0.64" stroke-width="0.552088" stroke-miterlimit="10"/>
<path d="M1407.74 635.296C1351.81 653.267 1287.51 656.706 1227.48 639.946C1196.81 631.503 1171.47 615.408 1141.69 605.265C1107.97 593.785 1076.55 577.162 1046.62 557.827C1026.11 544.587 1006.31 530.019 986.997 514.803C948.939 484.82 912.632 452.367 880.292 418.675C861.384 398.979 843.714 379.08 827.159 359.266C815.131 344.869 803.34 330.29 791.863 315.448C775.416 294.179 759.639 271.988 740.05 251.173C733.209 243.901 725.936 236.884 718.418 230.035C686.44 200.716 652.365 170.257 616.634 150.097C607.383 144.877 598.043 140.316 588.53 136.5C551.525 121.656 510.916 114.734 469.863 114.732C462.836 114.723 455.73 114.906 448.569 115.193C423.006 116.222 396.668 118.546 370.354 118.099C354.659 117.839 338.571 117.281 323.869 112.291C314.716 109.189 306.562 104.345 299.288 97.6633C291.936 90.9076 285.884 83.5369 279.463 75.8153C257.575 49.2947 228.628 20.8133 194.135 10.4133" stroke="#3282B8" stroke-opacity="0.64" stroke-width="0.552088" stroke-miterlimit="10"/>
<path d="M1405.02 634.676C1349.77 653.868 1285.71 657.984 1226.03 641.369C1194.87 632.814 1169.33 616.257 1138.99 606.176C1104.75 594.798 1072.71 578.289 1042.23 558.94C1021.35 545.687 1001.2 531.052 981.612 515.67C943.018 485.361 906.479 452.2 874.23 417.452C855.374 397.134 837.869 376.5 821.542 355.866C809.662 340.853 798.086 325.636 786.844 310.16C770.724 287.966 755.312 264.865 735.783 243.356C728.969 235.853 721.695 228.634 714.133 221.619C681.932 191.569 646.733 161.47 609.798 141.92C600.252 136.866 590.606 132.484 580.796 128.846C542.714 114.717 501.208 108.74 459.471 109.665C452.328 109.814 445.11 110.158 437.835 110.596C411.874 112.171 385.176 114.977 358.527 114.696C342.632 114.537 326.385 113.905 311.436 108.897C302.125 105.781 293.788 100.95 286.298 94.3704C278.673 87.6744 272.279 80.3417 265.574 72.6321C242.712 46.1787 213.631 17.4142 178.797 6.44845" stroke="#3282B8" stroke-opacity="0.64" stroke-width="0.552088" stroke-miterlimit="10"/>
<path d="M1402.28 634.057C1347.72 654.47 1283.91 659.262 1224.56 642.792C1192.92 634.124 1167.18 617.103 1136.29 607.09C1101.51 595.814 1068.86 579.419 1037.84 560.058C1016.57 546.796 996.072 532.088 976.214 516.539C937.087 485.905 900.314 452.035 868.153 416.228C849.35 395.293 832.012 373.917 815.909 352.465C804.178 336.837 792.815 320.979 781.811 304.871C766.019 281.755 750.968 257.74 731.501 235.54C724.718 227.804 717.437 220.382 709.836 213.205C677.415 182.424 641.091 152.682 602.951 133.744C593.106 128.857 583.156 124.652 573.05 121.189C533.894 107.772 491.489 102.744 449.064 104.597C441.804 104.906 434.475 105.408 427.089 106.001C400.733 108.124 373.671 111.407 346.691 111.293C330.593 111.232 314.189 110.532 298.994 105.502C289.528 102.372 281.006 97.5557 273.294 91.0771C265.397 84.4427 258.663 77.144 251.671 69.4525C227.835 43.0663 198.618 14.017 163.445 2.48335" stroke="#3282B8" stroke-opacity="0.64" stroke-width="0.552088" stroke-miterlimit="10"/>
<path d="M1399.55 633.435C1345.68 655.069 1282.11 660.539 1223.1 644.212C1190.98 635.436 1165.03 617.95 1133.59 607.999C1098.29 596.824 1065.02 580.545 1033.45 561.169C1011.81 547.894 990.96 533.117 970.825 517.403C931.161 486.442 894.157 451.869 862.088 414.999C843.338 393.443 826.166 371.329 810.29 349.06C798.71 332.816 787.556 316.317 776.787 299.579C761.322 275.539 746.634 250.615 727.232 227.722C720.476 219.754 713.19 212.13 705.547 204.789C672.904 173.277 635.459 143.89 596.113 125.569C585.971 120.846 575.719 116.819 565.313 113.533C525.082 100.825 481.779 96.7476 438.67 99.5315C431.296 100.001 423.851 100.66 416.356 101.409C389.604 104.079 362.177 107.84 334.865 107.894C318.565 107.932 302.002 107.161 286.561 102.112C276.937 98.9682 268.233 94.168 260.303 87.79C252.131 81.2176 245.057 73.9546 237.781 66.2751C212.972 39.9578 183.62 10.6198 148.106 -1.47563" stroke="#3282B8" stroke-opacity="0.64" stroke-width="0.552088" stroke-miterlimit="10"/>
<path d="M1396.82 632.816C1343.64 655.672 1280.32 661.817 1221.64 645.633C1189.04 636.743 1162.9 618.731 1130.9 608.909C1095.08 597.766 1061.18 581.668 1029.06 562.28C1007.04 548.994 985.845 534.148 965.438 518.266C925.241 486.98 888.003 451.699 856.022 413.77C837.325 391.597 820.322 368.743 804.67 345.655C793.241 328.795 782.298 311.657 771.767 294.287C756.631 269.324 742.258 243.526 722.964 219.902C716.222 211.713 708.948 203.876 701.264 196.371C668.4 164.129 629.829 135.097 589.277 117.392C578.837 112.833 568.283 108.987 557.579 105.875C516.272 93.8771 472.069 90.7481 428.277 94.4605C420.788 95.0874 413.229 95.9101 405.621 96.8089C378.473 100.027 350.683 104.269 323.039 104.487C306.536 104.625 289.818 103.783 274.128 98.7143C264.346 95.5567 255.458 90.7728 247.311 84.4955C238.863 77.9851 231.451 70.7578 223.888 63.0926C198.105 36.8425 168.619 7.22142 132.761 -5.44151" stroke="#3282B8" stroke-opacity="0.64" stroke-width="0.552088" stroke-miterlimit="10"/>
<path d="M1394.09 632.197C1341.59 656.272 1278.52 663.095 1220.17 647.056C1187.09 638.055 1160.75 619.584 1128.2 609.822C1091.85 598.786 1057.33 582.797 1024.67 563.396C1002.27 550.097 980.727 535.184 960.045 519.134C919.312 487.522 881.841 451.535 849.952 412.548C831.307 389.754 814.473 366.164 799.046 342.257C787.767 324.78 777.069 306.984 766.74 288.999C751.978 263.088 737.923 236.398 718.691 212.089C711.98 203.667 704.699 195.627 696.973 187.958C663.886 154.984 624.192 126.306 582.435 109.217C571.698 104.823 560.84 101.154 549.839 98.2241C507.456 86.9315 462.356 84.7567 417.878 89.398C410.27 90.185 402.6 91.1651 394.882 92.2193C367.338 95.9852 339.183 100.705 311.209 101.089C294.503 101.325 277.629 100.414 261.691 95.3247C251.751 92.1534 242.681 87.3858 234.315 81.2054C225.592 74.7608 217.842 67.5632 209.991 59.9143C183.236 33.7331 153.614 3.82341 117.415 -9.40524" stroke="#3282B8" stroke-opacity="0.64" stroke-width="0.552088" stroke-miterlimit="10"/>
<path d="M1391.36 631.577C1339.55 656.873 1276.72 664.374 1218.71 648.481C1185.15 639.367 1158.6 620.436 1125.5 610.735C1088.62 599.808 1053.49 583.926 1020.28 564.513C997.502 551.205 975.609 536.219 954.656 520.002C913.386 488.063 875.684 451.369 843.883 411.324C825.291 387.912 808.627 363.58 793.421 338.854C782.296 320.763 771.805 302.328 761.711 283.71C747.274 256.876 733.588 229.271 714.413 204.272C707.732 195.615 700.446 187.374 692.68 179.543C659.373 145.839 618.554 117.51 575.592 101.04C564.558 96.8108 553.396 93.3186 542.096 90.5668C498.636 79.9781 452.64 78.7594 407.477 84.3274C399.756 85.274 391.971 86.4121 384.142 87.6215C356.203 91.9351 327.683 97.1325 299.379 97.6864C282.471 98.0218 265.438 97.0404 249.255 91.9309C239.156 88.7457 229.902 83.9967 221.32 77.9147C212.32 71.5381 204.232 64.3703 196.096 56.7335C168.367 30.6195 138.612 0.426691 102.072 -13.3677" stroke="#3282B8" stroke-opacity="0.64" stroke-width="0.552088" stroke-miterlimit="10"/>
<path d="M1388.63 630.955C1337.51 657.475 1274.93 665.65 1217.25 649.9C1183.21 640.674 1156.45 621.283 1122.81 611.645C1085.39 600.823 1049.65 585.051 1015.89 565.624C992.731 552.306 970.491 537.251 949.265 520.868C907.461 488.604 869.525 451.201 837.816 410.097C819.276 386.064 802.782 360.996 787.8 335.452C776.826 316.743 766.542 297.674 756.689 278.419C742.577 250.668 729.257 222.142 710.144 196.458C703.494 187.568 696.201 179.124 688.393 171.13C654.864 136.694 612.92 108.717 568.756 92.867C557.423 88.8 545.959 85.4863 534.362 82.9127C489.825 73.0257 442.932 72.7652 397.083 79.2622C389.245 80.3688 381.349 81.666 373.408 83.0291C345.072 87.8926 316.192 93.5671 287.553 94.2875C270.442 94.7219 253.254 93.6695 236.823 88.5406C226.569 85.3413 217.128 80.6151 208.329 74.6278C199.054 68.3171 190.629 61.1789 182.204 53.5585C153.5 27.5117 123.61 -2.96601 86.7302 -17.3282" stroke="#3282B8" stroke-opacity="0.64" stroke-width="0.552088" stroke-miterlimit="10"/>
<path d="M1385.9 630.336C1335.46 658.077 1273.13 666.93 1215.79 651.322C1181.26 641.984 1154.3 622.134 1120.11 612.556C1082.16 601.841 1045.8 586.178 1011.49 566.736C987.961 553.404 965.373 538.282 943.871 521.732C901.533 489.14 863.362 451.034 831.743 408.869C813.256 384.218 796.974 358.386 782.171 332.05C771.381 312.709 761.274 293.019 751.658 273.128C737.869 244.457 724.921 215.012 705.865 188.639C699.243 179.515 691.947 170.872 684.098 162.713C650.349 127.547 607.305 99.837 561.909 84.691C550.285 80.766 538.51 77.6516 526.616 75.256C480.999 66.0713 433.211 66.7668 386.681 74.1939C378.727 75.4584 370.716 76.9175 362.664 78.432C333.932 83.8431 304.688 89.9952 275.719 90.8817C258.407 91.4129 241.058 90.2921 224.381 85.1435C213.97 81.9304 204.347 77.2244 195.326 71.3323C185.776 65.0934 177.012 57.9811 168.301 50.3749C138.625 24.397 108.6 -6.36765 71.3781 -21.2935" stroke="#3282B8" stroke-opacity="0.64" stroke-width="0.552088" stroke-miterlimit="10"/>
<path d="M1383.17 629.716C1333.42 658.676 1271.33 668.206 1214.33 652.743C1179.32 643.296 1152.14 622.985 1117.41 613.468C1078.93 602.859 1041.96 587.303 1007.1 567.849C983.191 554.507 960.257 539.316 938.481 522.596C895.609 489.679 857.204 450.864 825.673 407.641C807.241 382.371 791.121 355.807 776.547 328.646C765.905 308.693 756.011 288.361 746.632 267.839C733.169 238.249 720.587 207.884 701.591 180.822C695.002 171.463 687.698 162.619 679.809 154.298C645.837 118.4 601.662 91.055 555.069 76.5144C543.144 72.7581 531.073 69.7943 518.879 67.6005C472.199 59.022 423.501 60.7712 376.284 69.1273C368.215 70.5536 360.09 72.1683 351.93 73.836C322.802 79.7949 293.194 86.4284 263.892 87.4793C246.378 88.1094 228.873 86.9198 211.948 81.7497C201.378 78.5228 191.572 73.8392 182.336 68.0396C172.511 61.8704 163.409 54.7839 154.414 47.1937C123.763 21.2829 93.6033 -9.76648 56.0398 -25.258" stroke="#3282B8" stroke-opacity="0.64" stroke-width="0.552088" stroke-miterlimit="10"/>
<path d="M1380.44 629.095C1331.38 659.278 1269.53 669.482 1212.87 654.164C1177.38 644.604 1149.99 623.833 1114.71 614.376C1075.69 603.875 1038.12 588.428 1002.71 568.959C978.425 555.606 955.139 540.341 933.091 523.46C889.683 490.217 851.047 450.694 819.608 406.412C801.226 380.523 785.27 353.226 770.928 325.241C760.432 304.678 750.748 283.704 741.61 262.545C728.47 232.036 716.258 200.753 697.323 173.003C690.763 163.409 683.454 154.363 675.523 145.878C641.331 109.251 596.02 82.2709 548.232 68.3336C536.009 64.7437 523.632 61.9589 511.143 59.9411C463.375 52.0911 413.792 54.7696 365.889 64.0545C357.704 65.6387 349.468 67.4149 341.196 69.2361C311.672 75.7427 281.699 82.8538 252.066 84.0729C234.349 84.8021 216.687 83.5397 199.515 78.3519C188.787 75.1114 178.798 70.4519 169.344 64.7452C159.243 58.6479 149.803 51.5872 140.521 44.0112C108.9 18.1672 78.6024 -13.1648 40.6993 -29.2242" stroke="#3282B8" stroke-opacity="0.64" stroke-width="0.552088" stroke-miterlimit="10"/>
<path d="M1377.71 628.477C1329.34 659.881 1267.73 670.763 1211.4 655.589C1175.43 645.917 1147.84 624.686 1112.01 615.289C1072.46 604.895 1034.27 589.557 998.32 570.076C973.652 556.712 950.02 541.379 927.698 524.328C883.756 490.76 844.887 450.532 813.535 405.188C795.209 378.679 779.411 350.649 765.299 321.839C754.951 300.664 745.48 279.049 736.579 257.254C723.764 225.827 711.92 193.621 693.044 165.184C686.514 155.357 679.199 146.112 671.228 137.462C636.814 100.102 590.37 73.4893 541.385 60.1574C528.861 56.7363 516.181 54.1322 503.396 52.2844C454.539 45.161 404.073 48.7728 355.483 58.9866C347.183 60.7287 338.833 62.6644 330.451 64.641C300.531 71.6953 270.194 79.284 240.23 80.6692C222.31 81.4973 204.491 80.1661 187.072 74.9569C176.186 71.7025 166.004 67.086 156.341 61.4516C145.952 55.4451 136.187 48.3893 126.617 40.8296C94.0207 15.0528 63.588 -16.5641 25.3437 -33.1892" stroke="#3282B8" stroke-opacity="0.64" stroke-width="0.552088" stroke-miterlimit="10"/>
<path d="M1374.98 627.856C1327.29 660.481 1265.94 672.039 1209.94 657.01C1173.49 647.225 1145.69 625.537 1109.32 616.201C1069.23 605.913 1030.43 590.684 993.93 571.19C919.583 531.483 854.609 473.937 807.468 403.962C775.758 356.892 752.004 304.908 731.558 251.964C719.065 219.617 707.592 186.494 688.776 157.368C654.184 103.823 596.34 67.6573 534.551 51.982C472.762 36.3067 407.27 39.8584 345.093 53.9211C288.668 66.6798 230.114 87.9834 174.644 71.5664C111.205 52.7897 70.4426 -10.2272 10.0097 -37.1504" stroke="#3282B8" stroke-opacity="0.64" stroke-width="0.552088" stroke-miterlimit="10"/>
<path d="M1056.89 820.76C1101.05 766.636 1125.38 696.685 1124.33 626.843C1124.03 606.973 1121.51 586.391 1111.11 569.459C1081.05 520.538 1009.46 517.662 958.926 508.115C897.939 496.592 836.565 486.546 776.652 470.064C743.016 460.812 706.315 446.438 692.102 414.58C677.71 382.318 691.949 345.393 702.338 311.629C714.445 272.286 721.221 230.478 714.572 189.855C707.923 149.232 686.527 109.829 651.769 87.7735C624.55 70.5027 591.593 64.9611 559.454 62.4547C475.008 55.872 389.161 67.9134 309.782 97.4748" stroke="#3282B8" stroke-opacity="0.64" stroke-width="0.552088" stroke-miterlimit="10"/>
<path d="M1060.15 819.496C1099.17 771.662 1119.96 710.916 1122.26 646.401C1122.47 640.409 1122.55 634.414 1122.43 628.421C1122.01 608.726 1119.47 588.367 1109.31 571.56C1079.93 522.933 1010.42 518.874 960.476 508.691C916.193 499.663 871.412 491.712 826.813 481.264C811.323 477.661 795.894 473.783 780.556 469.497C747.285 460.198 711.031 445.979 696.532 414.849C681.851 383.327 694.876 347.3 704.181 314.317C715.021 275.883 720.716 235.044 713.448 195.287C710.917 181.445 706.659 167.738 700.731 154.823C689.643 130.651 672.712 109.242 650.331 94.9161C623.446 77.7081 591.066 71.7848 559.577 68.7397C495.84 62.5553 431.704 66.8598 369.945 81.5149C351.516 85.8864 333.303 91.1785 315.379 97.3969" stroke="#3282B8" stroke-opacity="0.64" stroke-width="0.552088" stroke-miterlimit="10"/>
<path d="M1063.4 818.233C1101.12 771.994 1118.91 713.139 1120.47 647.796C1120.61 641.866 1120.67 635.932 1120.52 630.001C1119.98 610.483 1117.43 590.346 1107.51 573.659C1078.81 525.323 1011.38 520.088 962.02 509.27C918.658 499.766 874.51 491.584 830.188 480.824C814.881 477.16 799.624 473.239 784.454 468.932C751.547 459.589 715.739 445.523 700.956 415.121C685.989 384.337 697.798 349.207 706.021 317.009C715.596 279.486 720.204 239.612 712.318 200.726C709.57 187.187 705.156 173.768 699.133 161.108C687.877 137.416 670.993 116.34 648.89 102.068C622.338 84.9245 590.538 78.6191 559.698 75.0314C497.264 67.7301 434.861 70.366 374.451 83.1543C356.425 86.9695 338.58 91.6855 320.974 97.3257" stroke="#3282B8" stroke-opacity="0.64" stroke-width="0.552088" stroke-miterlimit="10"/>
<path d="M1066.65 816.97C1103.08 772.324 1117.88 715.371 1118.69 649.192C1118.77 643.32 1118.8 637.449 1118.61 631.583C1117.97 612.24 1115.39 592.327 1105.71 575.764C1077.69 527.723 1012.35 521.315 963.57 509.85C921.134 499.877 877.642 491.355 833.569 480.39C818.452 476.63 803.361 472.7 788.356 468.371C755.814 458.981 720.451 445.069 705.387 415.399C690.134 385.352 700.726 351.122 707.865 319.705C716.173 283.091 719.7 244.186 711.196 206.168C708.229 192.93 703.661 179.8 697.544 167.394C686.118 144.179 669.285 123.441 647.454 109.22C621.235 92.1421 590.016 85.4547 559.825 81.3244C498.69 72.9065 438.024 73.8736 378.961 84.7971C361.337 88.056 343.864 92.1976 326.574 97.2617" stroke="#3282B8" stroke-opacity="0.64" stroke-width="0.552088" stroke-miterlimit="10"/>
<path d="M1069.9 815.706C1105.03 772.656 1116.86 717.606 1116.91 650.586C1116.91 644.774 1116.93 638.963 1116.7 633.161C1115.93 613.994 1113.35 594.304 1103.91 577.864C1076.57 530.117 1013.31 522.545 965.112 510.427C923.603 499.992 880.746 491.192 836.942 479.948C822.009 476.116 807.091 472.156 792.252 467.804C760.074 458.37 725.157 444.615 709.809 415.67C694.268 386.362 703.645 353.03 709.701 322.393C716.742 286.688 719.188 248.751 710.064 211.601C706.881 198.663 702.157 185.825 695.945 173.671C684.349 150.937 667.565 130.535 646.01 116.362C620.123 99.3448 589.484 92.2774 559.944 87.6063C500.111 78.0715 441.179 77.37 383.462 86.425C366.239 89.1258 349.137 92.6931 332.165 97.1789" stroke="#3282B8" stroke-opacity="0.64" stroke-width="0.552088" stroke-miterlimit="10"/>
<path d="M1073.15 814.442C1106.98 772.986 1115.85 719.845 1115.13 651.98C1115.06 646.229 1115.05 640.479 1114.8 634.742C1113.91 615.75 1111.31 596.282 1102.11 579.965C1075.45 532.513 1014.29 523.784 966.656 511.007C926.072 500.12 883.855 491.037 840.318 479.512C825.568 475.609 810.821 471.616 796.151 467.244C764.338 457.763 729.865 444.162 714.234 415.946C698.406 387.376 706.568 354.945 711.539 325.088C717.317 290.292 718.677 253.324 708.932 217.043C705.532 204.407 700.652 191.857 694.347 179.956C682.582 157.702 665.846 137.633 644.567 123.516C619.012 106.564 588.952 99.1163 560.061 93.9027C501.53 83.253 444.332 80.8808 387.962 88.0711C371.142 90.2157 354.409 93.2068 337.755 97.1144" stroke="#3282B8" stroke-opacity="0.64" stroke-width="0.552088" stroke-miterlimit="10"/>
<path d="M1076.41 813.178C1108.93 773.317 1114.87 722.089 1113.35 653.373C1113.22 647.683 1113.18 641.994 1112.89 636.319C1111.89 617.505 1109.27 598.258 1100.31 582.064C1074.34 534.905 1015.27 525.027 968.207 511.581C928.553 500.251 886.969 490.875 843.7 479.067C829.135 475.093 814.558 471.067 800.058 466.672C768.609 457.147 734.585 443.7 718.668 416.212C702.553 388.379 709.498 356.848 713.386 327.771C717.897 293.884 718.175 257.885 707.811 222.471C704.194 210.137 699.16 197.877 692.757 186.23C680.823 164.453 664.137 144.722 643.133 130.654C617.91 113.767 588.429 105.936 560.189 100.182C502.96 88.4149 447.496 84.3742 392.475 89.6977C376.055 91.2842 359.693 93.701 343.359 97.0321" stroke="#3282B8" stroke-opacity="0.64" stroke-width="0.552088" stroke-miterlimit="10"/>
<path d="M1079.66 811.915C1110.88 773.648 1113.89 724.339 1111.56 654.767C1111.37 649.137 1111.31 643.508 1110.98 637.9C1109.86 619.26 1107.23 600.236 1098.51 584.166C1073.22 537.299 1016.24 526.283 969.75 512.162C931.025 500.398 890.077 490.725 847.072 478.632C832.689 474.588 818.287 470.525 803.953 466.112C772.869 456.54 739.289 443.248 723.089 416.489C706.686 389.396 712.417 358.76 715.222 330.468C718.468 297.492 717.662 262.46 706.68 227.916C702.847 215.883 697.655 203.913 691.159 192.519C679.056 171.221 662.418 151.827 641.688 137.81C616.8 120.986 587.897 112.775 560.305 106.476C504.377 93.5945 450.648 87.883 396.971 91.3401C380.954 92.3703 364.961 94.2111 348.945 96.9639" stroke="#3282B8" stroke-opacity="0.64" stroke-width="0.552088" stroke-miterlimit="10"/>
<path d="M1082.91 810.652C1112.83 773.979 1112.93 726.591 1109.78 656.162C1109.54 650.594 1109.43 645.027 1109.08 639.479C1107.84 621.017 1105.19 602.216 1096.71 586.269C1072.1 539.697 1017.22 527.549 971.298 512.74C933.504 500.553 893.188 490.571 850.453 478.193C836.257 474.08 822.023 469.982 807.855 465.546C777.134 455.93 744.003 442.792 727.515 416.763C710.826 390.407 715.34 360.671 717.062 333.16C719.041 301.093 717.151 267.028 705.552 233.353C701.502 221.622 696.156 209.941 689.564 198.799C677.292 177.983 660.704 158.923 640.246 144.957C615.691 128.198 587.369 119.605 560.424 112.765C505.799 98.7671 453.803 91.3872 401.475 92.9774C385.858 93.4496 370.239 94.7138 354.537 96.8926" stroke="#3282B8" stroke-opacity="0.64" stroke-width="0.552088" stroke-miterlimit="10"/>
<path d="M1086.16 809.387C1114.78 774.309 1111.98 728.843 1108 657.556C1107.69 652.049 1107.56 646.541 1107.17 641.059C1105.82 622.771 1103.15 604.193 1094.91 588.37C1070.98 542.091 1018.2 528.822 972.846 513.319C935.982 500.719 896.297 490.424 853.83 477.755C839.815 473.574 825.755 469.44 811.756 464.983C781.4 455.321 748.713 442.337 731.942 417.037C714.967 391.419 718.264 362.582 718.902 335.852C719.614 304.695 716.642 271.598 704.422 238.792C700.155 227.363 694.653 215.971 687.968 205.082C675.525 184.743 658.985 166.021 638.807 152.106C614.586 135.41 586.841 126.435 560.547 119.055C507.223 103.942 456.962 94.8912 405.981 94.6168C390.767 94.5326 375.516 95.2208 360.135 96.8231" stroke="#3282B8" stroke-opacity="0.64" stroke-width="0.552088" stroke-miterlimit="10"/>
<path d="M1089.42 808.126C1116.74 774.643 1111.05 731.103 1106.22 658.95C1105.86 653.504 1105.69 648.057 1105.27 642.636C1103.79 624.525 1101.11 606.169 1093.11 590.467C1069.86 544.483 1019.19 530.102 974.391 513.892C938.456 500.889 899.407 490.272 857.207 477.309C843.375 473.061 829.486 468.89 815.655 464.413C785.663 454.706 753.425 441.876 736.368 417.304C719.106 392.423 721.186 364.486 720.741 338.537C720.188 308.29 716.132 276.161 703.293 244.221C698.81 233.093 693.152 221.988 686.372 211.355C673.761 191.496 657.27 173.109 637.364 159.246C613.474 142.613 586.312 133.258 560.667 125.335C508.645 109.105 460.119 98.3838 410.483 96.243C395.671 95.6025 380.79 95.7145 365.727 96.7386" stroke="#3282B8" stroke-opacity="0.64" stroke-width="0.552088" stroke-miterlimit="10"/>
<path d="M1092.67 806.861C1118.69 774.973 1110.13 733.358 1104.44 660.343C1104.02 654.959 1103.81 649.572 1103.36 644.215C1101.77 626.278 1099.07 608.145 1091.31 592.568C1068.75 546.878 1020.17 531.398 975.939 514.47C940.935 501.076 902.518 490.126 860.586 476.872C846.938 472.559 833.221 468.349 819.558 463.851C789.931 454.098 758.135 441.425 740.799 417.581C723.249 393.44 724.117 366.4 722.583 341.235C720.766 311.895 715.626 280.737 702.17 249.665C697.47 238.84 691.657 228.024 684.78 217.645C672.001 198.265 655.559 180.213 635.928 166.401C612.369 149.832 585.786 140.093 560.791 131.632C510.07 114.287 463.279 101.895 414.992 97.8876C400.581 96.6891 386.071 96.2268 371.327 96.6744" stroke="#3282B8" stroke-opacity="0.64" stroke-width="0.552088" stroke-miterlimit="10"/>
<path d="M1095.92 805.598C1120.63 775.303 1109.23 735.616 1102.66 661.739C1102.18 656.418 1101.95 651.087 1101.45 645.796C1099.78 628.033 1097.03 610.127 1089.51 594.672C1067.63 549.275 1021.15 532.704 977.483 515.054C943.405 501.277 905.623 489.989 863.961 476.437C850.496 472.058 836.955 467.809 823.456 463.287C794.193 453.489 762.845 440.97 745.223 417.854C727.386 394.45 727.038 368.31 724.423 343.927C721.338 315.496 715.117 285.308 701.04 255.104C696.122 244.581 690.154 234.054 683.184 223.927C670.232 205.027 653.839 187.311 634.486 173.552C611.262 157.047 585.258 146.928 560.912 137.924C511.494 119.462 466.436 105.402 419.496 99.5294C405.487 97.7746 391.346 96.7361 376.919 96.6076" stroke="#3282B8" stroke-opacity="0.64" stroke-width="0.552088" stroke-miterlimit="10"/>
<path d="M1099.17 804.334C1122.59 775.635 1108.36 737.873 1100.87 663.132C1100.35 657.872 1100.07 652.604 1099.54 647.375C1097.76 629.788 1094.99 612.104 1087.71 596.771C1066.51 551.667 1022.13 534.022 979.031 515.628C945.88 501.482 908.731 489.843 867.34 475.996C854.06 471.554 840.689 467.264 827.358 462.722C798.46 452.878 767.557 440.512 749.651 418.126C731.528 395.459 729.963 370.219 726.264 346.617C721.915 319.097 714.609 289.875 699.913 260.539C694.778 250.314 688.656 240.08 681.588 230.204C668.469 211.783 652.125 194.403 633.046 180.694C610.155 164.253 584.731 153.752 561.034 144.206C512.917 124.629 469.594 108.898 424 101.157C410.392 98.844 396.623 97.2311 382.513 96.5244" stroke="#3282B8" stroke-opacity="0.64" stroke-width="0.552088" stroke-miterlimit="10"/>
<path d="M1102.43 803.069C1124.54 775.964 1107.49 740.129 1099.09 664.526C1098.52 659.326 1098.2 654.118 1097.64 648.953C1095.73 631.542 1092.95 614.081 1085.91 598.872C1065.39 554.062 1023.11 535.351 980.575 516.207C948.347 501.702 911.838 489.707 870.716 475.556C857.618 471.048 844.419 466.72 831.256 462.157C802.722 452.268 772.267 440.057 754.076 418.398C735.665 396.471 732.884 372.128 728.102 349.307C722.486 322.697 714.096 294.442 698.781 265.976C693.429 256.054 687.151 246.107 679.99 236.485C666.702 218.543 650.407 201.498 631.6 187.841C609.042 171.465 584.197 160.581 561.148 150.494C514.333 129.8 472.744 112.401 428.496 102.795C415.291 99.9259 401.891 97.737 388.101 96.4537" stroke="#3282B8" stroke-opacity="0.64" stroke-width="0.552088" stroke-miterlimit="10"/>
<path d="M1105.68 801.808C1126.49 776.298 1106.65 742.386 1097.31 665.921C1096.69 660.783 1096.33 655.635 1095.73 650.535C1093.71 633.299 1090.91 616.059 1084.11 600.973C1064.27 556.458 1024.09 536.697 982.125 516.783C950.818 501.929 914.947 489.569 874.094 475.115C861.178 470.544 848.153 466.176 835.158 461.591C806.989 451.657 776.979 439.6 758.504 418.67C739.806 397.48 735.81 374.035 729.944 351.997C723.063 326.297 713.589 299.01 697.657 271.412C692.088 261.793 685.656 252.136 678.397 242.767C664.939 225.303 648.692 208.596 630.163 194.992C607.939 178.679 583.673 167.414 561.273 156.785C515.759 134.977 475.905 115.906 433.006 104.434C420.203 101.005 407.174 98.2412 393.7 96.3818" stroke="#3282B8" stroke-opacity="0.64" stroke-width="0.552088" stroke-miterlimit="10"/>
<path d="M1108.93 800.543C1128.44 776.626 1105.83 744.638 1095.53 667.313C1094.85 662.236 1094.45 657.147 1093.82 652.112C1091.68 635.051 1088.83 618.048 1082.31 603.072C1063.06 558.89 1025.06 538.053 983.667 517.36C953.275 502.169 918.048 489.436 877.47 474.676C864.736 470.043 851.883 465.631 839.056 461.027C811.251 451.047 781.689 439.145 762.928 418.942C743.942 398.489 738.731 375.945 731.783 354.69C723.635 329.899 713.079 303.581 696.527 276.851C690.742 267.532 684.152 258.165 676.8 249.05C663.172 232.067 646.976 215.693 628.721 202.14C606.827 185.89 583.142 174.243 561.394 163.073C517.183 140.148 479.061 119.409 437.508 106.07C425.107 102.084 412.447 98.7447 399.29 96.3092" stroke="#3282B8" stroke-opacity="0.64" stroke-width="0.552088" stroke-miterlimit="10"/>
<path d="M1112.18 799.282C1130.39 776.96 1105.02 746.89 1093.75 668.711C1093.03 663.694 1092.58 658.667 1091.92 653.696C1089.66 636.811 1086.8 620.031 1080.51 605.18C1061.95 561.289 1026.03 539.427 985.216 517.947C955.736 502.431 921.155 489.314 880.848 474.246C868.296 469.553 855.616 465.097 842.956 460.47C815.515 450.444 786.398 438.696 767.352 419.225C748.078 399.511 741.653 377.866 733.62 357.39C724.205 333.509 712.567 308.159 695.396 282.296C689.394 273.28 682.648 264.201 675.203 255.339C661.406 238.835 645.257 222.799 627.277 209.295C605.717 193.108 582.609 181.084 561.51 169.371C518.6 145.331 482.211 122.92 442.008 107.716C430.008 103.172 417.722 99.26 404.882 96.2463" stroke="#3282B8" stroke-opacity="0.64" stroke-width="0.552088" stroke-miterlimit="10"/>
<path d="M1115.43 798.017C1132.35 777.288 1104.24 749.137 1091.97 670.103C1091.2 665.148 1090.71 660.181 1090.01 655.272C1087.63 638.563 1084.75 622.005 1078.71 607.276C1060.82 563.678 1026.98 540.809 986.759 518.518C958.187 502.688 924.254 489.18 884.224 473.8C871.854 469.048 859.349 464.545 846.855 459.9C819.778 449.829 791.107 438.237 771.778 419.492C752.217 400.515 744.575 379.77 735.459 360.075C724.781 337.102 712.059 312.72 694.267 287.726C688.048 279.011 681.147 270.222 673.607 261.611C659.64 245.586 643.54 229.885 625.836 216.433C604.609 200.311 582.082 187.904 561.632 175.649C520.024 150.492 485.37 126.41 446.513 109.343C434.915 104.244 422.998 99.7554 410.476 96.1634" stroke="#3282B8" stroke-opacity="0.64" stroke-width="0.552088" stroke-miterlimit="10"/>
<path d="M1118.69 796.753C1134.3 777.619 1103.47 751.377 1090.19 671.496C1089.37 666.6 1088.83 661.696 1088.11 656.851C1085.61 640.318 1082.72 623.983 1076.91 609.378C1059.71 566.073 1027.94 542.209 988.309 519.098C960.638 502.962 927.359 489.06 887.603 473.363C875.415 468.552 863.083 464.004 850.759 459.336C824.048 449.219 795.821 437.781 776.208 419.765C756.361 401.526 747.504 381.678 737.303 362.766C725.358 340.703 711.554 317.29 693.143 293.166C686.708 284.752 679.65 276.252 672.015 267.897C657.88 252.351 641.829 236.986 624.399 223.587C603.504 207.53 581.556 194.74 561.757 181.944C521.451 155.672 488.532 129.919 451.021 110.984C439.826 105.328 428.277 100.264 416.074 96.0936" stroke="#3282B8" stroke-opacity="0.64" stroke-width="0.552088" stroke-miterlimit="10"/>
<path d="M1121.94 795.49C1136.25 777.949 1102.73 753.616 1088.4 672.892C1087.55 668.056 1086.96 663.212 1086.2 658.432C1083.59 642.074 1080.67 625.96 1075.11 611.479C1058.59 568.465 1028.88 543.626 989.855 519.675C963.08 503.243 930.46 488.936 890.98 472.921C878.973 468.051 866.817 463.46 854.659 458.769C828.311 448.608 800.531 437.323 780.636 420.037C760.501 402.537 750.429 383.587 739.144 365.456C725.933 344.302 711.044 321.856 692.017 298.6C685.365 290.489 678.153 282.279 670.421 274.176C656.117 259.111 640.115 244.081 622.961 230.731C602.401 214.736 581.031 201.566 561.88 188.229C522.876 160.841 491.691 133.419 455.528 112.618C444.734 106.403 433.556 100.765 421.673 96.0179" stroke="#3282B8" stroke-opacity="0.64" stroke-width="0.552088" stroke-miterlimit="10"/>
<path d="M1125.19 794.225C1138.2 778.279 1102.01 755.846 1086.62 674.283C1085.72 669.507 1085.08 664.725 1084.29 660.01C1081.56 643.829 1078.66 627.928 1073.31 613.579C1057.56 570.826 1029.81 545.055 991.397 520.252C965.51 503.535 933.557 488.817 894.354 472.483C882.526 467.556 870.545 462.918 858.556 458.206C832.573 447.999 805.239 436.87 785.059 420.312C764.637 403.549 753.348 385.499 740.983 368.151C726.506 347.907 710.534 326.428 690.886 304.041C684.016 296.232 676.648 288.31 668.823 280.46C654.348 265.873 638.398 251.181 621.516 237.882C601.286 221.951 580.498 208.399 561.995 194.52C524.292 166.016 494.842 136.924 460.026 114.258C449.635 107.487 438.828 101.27 427.259 95.9494" stroke="#3282B8" stroke-opacity="0.64" stroke-width="0.552088" stroke-miterlimit="10"/>
<path d="M1128.44 792.964C1140.15 778.613 1101.31 758.074 1084.84 675.681C1083.9 670.964 1083.21 666.245 1082.38 661.592C1079.53 645.587 1076.62 629.907 1071.51 615.682C1056.44 573.222 1030.73 546.503 992.945 520.835C967.937 503.844 936.657 488.708 897.733 472.047C886.086 467.062 874.279 462.377 862.456 457.643C836.837 447.392 809.949 436.415 789.486 420.586C768.777 404.561 756.271 387.411 742.822 370.843C727.079 351.509 710.025 330.999 689.757 309.478C682.67 301.968 675.15 294.337 667.228 286.741C652.585 272.633 636.681 258.275 620.076 245.031C600.179 229.165 579.971 215.231 562.118 200.809C525.718 171.189 498.001 140.428 464.532 115.893C454.54 108.564 444.105 101.773 432.856 95.876" stroke="#3282B8" stroke-opacity="0.64" stroke-width="0.552088" stroke-miterlimit="10"/>
<path d="M1131.69 791.699C1142.1 778.943 1100.63 760.287 1083.06 677.072C1082.08 672.415 1081.34 667.756 1080.48 663.17C1077.51 647.34 1074.58 631.884 1069.71 617.781C1055.32 575.616 1031.63 547.963 994.493 521.409C970.354 504.151 939.757 488.591 901.11 471.605C889.642 466.563 878.013 461.829 866.356 457.077C841.102 446.778 814.661 435.957 793.912 420.856C772.915 405.571 759.197 389.317 744.662 373.531C727.651 355.106 709.515 335.565 688.629 314.915C681.325 307.707 673.649 300.364 665.632 293.024C650.818 279.393 634.964 265.374 618.635 252.179C599.072 236.375 579.443 222.061 562.239 207.097C527.14 176.362 501.157 143.93 469.035 117.531C459.447 109.646 449.381 102.278 438.449 95.8029" stroke="#3282B8" stroke-opacity="0.64" stroke-width="0.552088" stroke-miterlimit="10"/>
<path d="M1134.95 790.436C1144.06 779.275 1099.98 762.498 1081.28 678.466C1080.26 673.866 1079.45 669.273 1078.57 664.748C1075.45 649.1 1072.54 633.859 1067.91 619.883C1054.2 578.01 1032.52 549.442 996.037 521.989C972.762 504.472 942.847 488.484 904.487 471.167C893.2 466.071 881.745 461.287 870.256 456.514C845.366 446.171 819.371 435.502 798.339 421.13C777.055 406.583 762.121 391.229 746.502 376.224C728.228 358.707 709.006 340.136 687.501 320.352C679.979 313.447 672.147 306.391 664.037 299.304C649.053 286.155 633.25 272.47 617.193 259.326C597.963 243.588 578.913 228.89 562.358 213.387C528.562 181.535 504.313 147.435 473.539 119.168C464.351 110.725 454.656 102.784 444.043 95.73" stroke="#3282B8" stroke-opacity="0.64" stroke-width="0.552088" stroke-miterlimit="10"/>
<path d="M1138.2 789.173C1146 779.605 1099.35 764.698 1079.5 679.862C1078.43 675.321 1077.58 670.793 1076.66 666.328C1073.43 650.857 1070.5 635.84 1066.11 621.983C1053.09 580.406 1033.39 550.935 997.587 522.565C975.161 504.796 945.944 488.375 907.866 470.726C896.757 465.576 885.479 460.742 874.16 455.946C849.635 445.557 824.085 435.047 802.769 421.4C781.199 407.59 765.047 393.136 748.345 378.911C728.804 362.304 708.5 344.701 686.376 325.784C678.639 319.179 670.651 312.416 662.446 305.58C647.294 292.91 631.536 279.561 615.757 266.467C596.859 250.794 578.39 235.713 562.484 219.668C529.989 186.701 507.475 150.931 478.046 120.797C469.26 111.798 459.935 103.28 449.64 95.6524" stroke="#3282B8" stroke-opacity="0.64" stroke-width="0.552088" stroke-miterlimit="10"/>
<path d="M1141.45 787.909C1147.96 779.936 1098.75 766.888 1077.72 681.257C1076.61 676.774 1075.71 672.308 1074.76 667.908C1071.4 652.611 1068.46 637.817 1064.31 624.085C1051.97 582.801 1034.24 552.442 999.131 523.144C977.545 505.129 949.031 488.273 911.243 470.288C900.311 465.084 889.211 460.199 878.059 455.381C853.897 444.948 828.793 434.59 807.192 421.675C785.335 408.602 767.967 395.047 750.183 381.606C729.378 365.909 707.99 349.274 685.245 331.225C677.291 324.923 669.147 318.447 660.847 311.865C645.526 299.673 629.818 286.661 614.314 273.621C595.75 258.01 577.858 242.548 562.604 225.962C531.411 191.878 510.632 154.437 482.55 122.439C474.167 112.883 465.211 103.789 455.234 95.583" stroke="#3282B8" stroke-opacity="0.64" stroke-width="0.552088" stroke-miterlimit="10"/>
<path d="M1144.7 786.646C1149.91 780.268 1098.17 769.07 1075.93 682.651C1074.79 678.227 1073.83 673.822 1072.85 669.488C1069.38 654.369 1066.42 639.796 1062.51 626.186C1050.85 585.196 1035.06 553.963 1000.68 523.725C979.918 505.469 952.121 488.176 914.619 469.852C903.864 464.597 892.942 459.66 881.957 454.821C858.161 444.341 833.503 434.139 811.616 421.951C789.472 409.618 770.89 396.959 752.021 384.3C729.949 369.513 707.477 353.845 684.115 336.664C675.943 330.664 667.645 324.478 659.249 318.146C643.758 306.433 628.1 293.757 612.87 280.766C594.637 265.219 577.328 249.377 562.721 232.25C532.829 197.051 513.785 157.939 487.051 124.075C479.069 113.961 470.484 104.293 460.825 95.5084" stroke="#3282B8" stroke-opacity="0.64" stroke-width="0.552088" stroke-miterlimit="10"/>
<path d="M1147.96 785.383C1151.86 780.6 1097.61 771.236 1074.15 684.044C1072.98 679.675 1071.96 675.339 1070.94 671.066C1067.35 656.121 1064.38 641.771 1060.72 628.287C1049.73 587.589 1035.87 555.496 1002.23 524.301C982.285 505.81 955.211 488.08 917.999 469.409C907.421 464.102 896.681 459.112 885.861 454.253C862.428 443.729 838.217 433.679 816.048 422.223C793.617 410.627 773.818 398.867 753.867 386.99C730.527 373.112 706.973 358.412 682.993 342.103C674.606 336.403 666.15 330.507 657.658 324.43C641.998 313.199 626.387 300.856 611.433 287.917C593.534 272.433 576.804 256.21 562.844 238.539C534.253 202.226 516.944 161.443 491.555 125.712C483.976 115.042 475.761 104.796 466.42 95.4371" stroke="#3282B8" stroke-opacity="0.64" stroke-width="0.552088" stroke-miterlimit="10"/>
<path d="M1151.21 784.118C1153.81 780.928 1097.08 773.39 1072.37 685.438C1071.16 681.125 1070.09 676.853 1069.04 672.646C1065.33 657.878 1062.34 643.752 1058.92 630.386C1048.61 589.983 1036.65 557.04 1003.77 524.878C984.634 506.154 958.291 487.986 921.377 468.971C910.976 463.615 900.413 458.57 889.762 453.69C866.694 443.12 842.929 433.226 820.475 422.497C797.758 411.638 776.741 400.779 755.707 389.682C731.102 376.715 706.464 362.983 681.865 347.539C673.261 342.142 664.651 336.535 656.063 330.711C640.233 319.957 624.673 307.951 609.993 295.066C592.427 279.647 576.275 263.041 562.967 244.829C535.679 207.398 520.103 164.947 496.063 127.349C488.884 116.122 481.04 105.301 472.016 95.3656" stroke="#3282B8" stroke-opacity="0.64" stroke-width="0.552088" stroke-miterlimit="10"/>
<path d="M1154.46 782.855C1155.76 781.26 1096.58 775.534 1070.59 686.832C1069.34 682.575 1068.21 678.371 1067.13 674.224C1063.3 659.632 1060.3 645.728 1057.11 632.488C1047.49 592.379 1037.39 558.596 1005.31 525.455C986.965 506.498 961.344 487.941 924.75 468.529C914.517 463.135 904.141 458.024 893.658 453.124C870.954 442.509 847.635 432.767 824.898 422.768C801.892 412.649 779.662 402.688 757.542 392.371C731.671 380.312 705.951 367.55 680.731 352.975C671.909 347.88 663.143 342.561 654.463 336.99C638.464 326.715 622.953 315.045 608.548 302.21C591.314 286.855 575.741 269.87 563.082 251.115C537.094 212.57 523.254 168.448 500.561 128.986C493.784 117.201 486.31 105.804 477.605 95.2929" stroke="#3282B8" stroke-opacity="0.64" stroke-width="0.552088" stroke-miterlimit="10"/>
<path d="M1157.71 781.592C1157.71 781.592 1096.1 777.664 1068.81 688.227C1041.52 598.79 1056.35 537.712 928.129 468.093C839.523 419.985 739.171 395.558 652.872 343.274C617.366 321.762 585.258 292.834 563.207 257.406C538.522 217.744 526.415 171.954 505.068 130.623C498.692 118.281 491.591 106.311 483.203 95.2195" stroke="#3282B8" stroke-opacity="0.64" stroke-width="0.552088" stroke-miterlimit="10"/>
</g>
<defs>
<filter id="filter0_d" x="5.78836" y="-297.54" width="1458.1" height="1194.05" filterUnits="userSpaceOnUse" color-interpolation-filters="sRGB">
<feFlood flood-opacity="0" result="BackgroundImageFix"/>
<feColorMatrix in="SourceAlpha" type="matrix" values="0 0 0 0 0 0 0 0 0 0 0 0 0 0 0 0 0 0 127 0" result="hardAlpha"/>
<feOffset dy="4"/>
<feGaussianBlur stdDeviation="2"/>
<feComposite in2="hardAlpha" operator="out"/>
<feColorMatrix type="matrix" values="0 0 0 0 0 0 0 0 0 0 0 0 0 0 0 0 0 0 0.25 0"/>
<feBlend mode="normal" in2="BackgroundImageFix" result="effect1_dropShadow"/>
<feBlend mode="normal" in="SourceGraphic" in2="effect1_dropShadow" result="shape"/>
</filter>
</defs>
</svg>
